<svg width="63" height="44" viewBox="0 0 63 44" fill="none" xmlns="http://www.w3.org/2000/svg">
<g clip-path="url(#clip0_48_247)">
<path d="M46.4019 42.5597H33.7194L23.8552 24.4563L13.2865 42.5597H1.40918L23.6539 2.12866L46.4019 42.5597Z" fill="#68CBF3"/>
<path d="M61.903 22.3442C61.903 29.1833 60.4939 33.7091 58.4808 36.7264C58.1788 34.6143 56.367 33.2063 52.3408 31.8988L51.0323 31.4965C48.5159 30.6919 47.2074 29.6861 47.2074 27.9764C47.2074 25.9649 49.2205 24.8586 51.8375 24.8586C52.8441 24.8586 53.75 25.0597 54.6559 25.3614L55.3605 28.3787H57.3736L57.5749 24.8586C56.1657 23.9534 54.3539 23.4505 52.0389 23.4505C47.7107 23.4505 44.4897 25.3614 44.4897 28.4792C44.4897 31.2953 46.8048 32.804 50.3277 33.9103L51.6362 34.3126C54.5552 35.2178 55.8637 36.0224 55.8637 37.8327C55.8637 39.9448 53.75 41.1517 50.529 41.1517C49.0192 41.1517 48.0127 40.9505 47.0061 40.4476L46.2009 37.3298H44.1878V37.531L23.8555 0.921773H42.1747C42.1747 0.921773 61.903 0.519475 61.903 22.3442Z" fill="url(#paint0_linear_48_247)"/>
<path d="M23.8554 24.4563L13.2866 42.5597H33.7196L23.8554 24.4563Z" fill="url(#paint1_linear_48_247)"/>
</g>
<defs>
<linearGradient id="paint0_linear_48_247" x1="9.27962" y1="-3.77839" x2="53.9855" y2="24.9328" gradientUnits="userSpaceOnUse">
<stop stop-color="#CAE9FB" stopOpacity="0"/>
<stop offset="1" stop-color="#6ACBF3"/>
</linearGradient>
<linearGradient id="paint1_linear_48_247" x1="23.5055" y1="49.0503" x2="23.5055" y2="28.4374" gradientUnits="userSpaceOnUse">
<stop stop-color="#CAE9FB" stopOpacity="0"/>
<stop offset="1" stop-color="#6ACBF3"/>
</linearGradient>
<clipPath id="clip0_48_247">
<rect width="63.01" height="43.75" fill="white" transform="translate(0 0.117188)"/>
</clipPath>
</defs>
</svg>
