<?xml version="1.0" encoding="utf-8"?>
<!-- Generator: Adobe Illustrator 24.1.2, SVG Export Plug-In . SVG Version: 6.00 Build 0)  -->
<svg version="1.1" id="Layer_1" xmlns="http://www.w3.org/2000/svg" xmlns:xlink="http://www.w3.org/1999/xlink" x="0px" y="0px"
	 viewBox="0 0 62.6 43.5" style="enable-background:new 0 0 62.6 43.5;" xml:space="preserve">
<style type="text/css">
	.st0{fill:#68CBF3;}
	.st1{fill:url(#SVGID_1_);}
	.st2{fill:url(#SVGID_2_);}
</style>
<polygon class="st0" points="46.1,42.2 33.5,42.2 23.7,24.2 13.2,42.2 1.4,42.2 23.5,2 "/>
<path class="st0" d="M46.4,41.8c0.8,0.2,1.6,0.3,2.4,0.4c-1.3,0.2-2.2,0.1-2.2,0.1L46.4,41.8z"/>
<linearGradient id="SVGID_1_" gradientUnits="userSpaceOnUse" x1="9.219" y1="-3.8733" x2="53.6547" y2="24.6416">
	<stop  offset="0" style="stop-color:#CAE9FB;stop-opacity:0"/>
	<stop  offset="1" style="stop-color:#6ACBF3"/>
</linearGradient>
<path class="st1" d="M61.5,22.1c0,6.8-1.4,11.3-3.4,14.3c-0.3-2.1-2.1-3.5-6.1-4.8l-1.3-0.4c-2.5-0.8-3.8-1.8-3.8-3.5
	c0-2,2-3.1,4.6-3.1c1,0,1.9,0.2,2.8,0.5l0.7,3h2l0.2-3.5c-1.4-0.9-3.2-1.4-5.5-1.4c-4.3,0-7.5,1.9-7.5,5c0,2.8,2.3,4.3,5.8,5.4
	l1.3,0.4c2.9,0.9,4.2,1.7,4.2,3.5c0,2.1-2.1,3.3-5.3,3.3c-1.5,0-2.5-0.2-3.5-0.7L45.9,37h-2l0,0.2L23.7,0.8h18.2
	C41.9,0.8,61.5,0.4,61.5,22.1z"/>
<linearGradient id="SVGID_2_" gradientUnits="userSpaceOnUse" x1="23.3524" y1="48.6535" x2="23.3524" y2="28.1584">
	<stop  offset="0" style="stop-color:#CAE9FB;stop-opacity:0"/>
	<stop  offset="1" style="stop-color:#6ACBF3"/>
</linearGradient>
<polygon class="st2" points="23.7,24.2 13.2,42.2 33.5,42.2 "/>
</svg>
