<?xml version="1.0" encoding="utf-8"?>
<!-- Generator: Adobe Illustrator 24.1.2, SVG Export Plug-In . SVG Version: 6.00 Build 0)  -->
<svg version="1.1" id="Layer_1" xmlns="http://www.w3.org/2000/svg" xmlns:xlink="http://www.w3.org/1999/xlink" x="0px" y="0px"
	 viewBox="0 0 1920 635" style="enable-background:new 0 0 1920 635;" xml:space="preserve">
<style type="text/css">
	.st0{fill:#2D2C6E;}
</style>
<rect y="44" class="st0" width="1920" height="591"/>
<path class="st0" d="M1242.4,8.3c0.4,0.2,0.8,0.3,1.2,0.3c0-0.3-0.7-0.6,0-0.6c0,0,0,0,0,0C1243.1,8,1242.4,8,1242.4,8.3z"/>
<path class="st0" d="M1755.2,8.2c-0.1,0-0.1,0-0.1,0c0.1,0.1,0.1,0.2,0.2,0.2C1755.2,8.3,1755.2,8.3,1755.2,8.2z"/>
<path class="st0" d="M375.1,15.9C375.1,15.9,375.1,15.9,375.1,15.9c0,0-0.1-0.1-0.1-0.1C375,15.8,375,15.9,375.1,15.9z"/>
<path class="st0" d="M1887.1,9.1c0.5,0.2,1,0.3,1.5,0.3c0,0,0.1,0,0.3-0.1C1888.7,9.1,1887.7,9.2,1887.1,9.1z"/>
<path class="st0" d="M196.9,13.3C196.9,13.3,196.9,13.4,196.9,13.3c0.2,0.1,0.3,0,0.5,0C197.2,13.4,197.1,13.3,196.9,13.3z"/>
<path class="st0" d="M1824.2,15.4c0.1,0,0.1,0,0.1-0.1c0-0.2,0-0.3-0.1-0.4c-0.3,0.2-0.5,0.4-0.7,0.7c0,0,0.1,0,0.1,0
	c0-0.1,0.2-0.1,0.3-0.1c0,0,0,0,0-0.1C1824,15.4,1824.1,15.4,1824.2,15.4z"/>
<path class="st0" d="M1571.2,16.3c0.1,0,0.2,0,0.2,0.1c0.6-0.1,0.3-0.3,0.1-0.4C1571.5,16,1571.4,16.1,1571.2,16.3z"/>
<path class="st0" d="M1251.8,13.4c0.1,0,0.1,0,0.2,0c0.3-0.2,0.6-0.5,0.8-0.1c0.9,0-0.1-0.3-0.1-0.6
	C1252.1,12.8,1252.1,13.2,1251.8,13.4z"/>
<path class="st0" d="M1502.7,9c0,0-0.1,0-0.1,0c0.1,0.1,0.2,0.2,0.2,0.2C1502.7,9.1,1502.7,9.1,1502.7,9z"/>
<path class="st0" d="M1634.4,10c0.4,0.2,0.9,0.3,1.4,0.3c-0.1-0.1-0.1-0.2,0.3-0.2c-0.1-0.2-1-0.2-1.7-0.2
	C1634.4,10,1634.3,10,1634.4,10C1634.4,10,1634.4,10,1634.4,10z"/>
</svg>
