<?xml version="1.0" encoding="utf-8"?>
<!-- Generator: Adobe Illustrator 24.1.2, SVG Export Plug-In . SVG Version: 6.00 Build 0)  -->
<svg version="1.1" id="Layer_1" xmlns="http://www.w3.org/2000/svg" xmlns:xlink="http://www.w3.org/1999/xlink" x="0px" y="0px"
	 viewBox="0 0 24 24" style="enable-background:new 0 0 24 24;" xml:space="preserve">
<style type="text/css">
	.st0{fill:none;stroke:#FFFFFF;stroke-width:1.5;stroke-miterlimit:10;}
	.st1{fill:none;stroke:#FFFFFF;stroke-width:1.5;stroke-linecap:round;stroke-linejoin:round;}
</style>
<path class="st0" d="M22,18.6c0,0.4-0.1,0.8-0.3,1.1s-0.4,0.7-0.7,1.1c-0.5,0.6-1.1,1-1.7,1.2c-0.6,0.3-1.3,0.4-2,0.4
	c-1.1,0-2.2-0.3-3.4-0.8c-1.2-0.5-2.4-1.2-3.6-2.1c-1.2-0.9-2.4-1.9-3.4-2.9c-1.1-1.1-2.1-2.2-2.9-3.4C3,12.1,2.3,10.9,1.8,9.7
	C1.3,8.5,1,7.4,1,6.3c0-0.7,0.1-1.4,0.4-2C1.6,3.6,2,3,2.6,2.5c0.7-0.7,1.4-1,2.2-1c0.3,0,0.6,0.1,0.9,0.2C5.9,1.8,6.2,2,6.3,2.3
	l2.4,3.4C9,6,9.1,6.2,9.2,6.4c0.1,0.2,0.1,0.4,0.1,0.6c0,0.3-0.1,0.5-0.2,0.7C9,8.1,8.8,8.3,8.5,8.6L7.7,9.4
	C7.6,9.5,7.6,9.7,7.6,9.8c0,0.1,0,0.2,0,0.2c0,0.1,0.1,0.1,0.1,0.2c0.2,0.3,0.5,0.8,1,1.3c0.5,0.5,1,1.1,1.5,1.7
	c0.6,0.6,1.1,1.1,1.7,1.5c0.5,0.5,1,0.8,1.4,1c0.1,0,0.1,0.1,0.2,0.1c0.1,0,0.2,0,0.3,0c0.2,0,0.3-0.1,0.4-0.2l0.8-0.8
	c0.3-0.3,0.5-0.5,0.8-0.6c0.2-0.1,0.5-0.2,0.7-0.2c0.2,0,0.4,0,0.6,0.1c0.2,0.1,0.5,0.2,0.7,0.4l3.5,2.5c0.3,0.2,0.5,0.4,0.6,0.7
	C21.9,18.1,22,18.4,22,18.6z"/>
<path class="st1" d="M18.3,8.8c0-0.6-0.5-1.6-1.2-2.4c-0.7-0.7-1.6-1.3-2.4-1.3"/>
<path class="st1" d="M22,8.8c0-4.1-3.3-7.4-7.4-7.4"/>
</svg>
