<?xml version="1.0" encoding="utf-8"?>
<!-- Generator: Adobe Illustrator 24.1.2, SVG Export Plug-In . SVG Version: 6.00 Build 0)  -->
<svg version="1.1" id="Layer_1" xmlns="http://www.w3.org/2000/svg" xmlns:xlink="http://www.w3.org/1999/xlink" x="0px" y="0px"
	 viewBox="0 0 22 26" style="enable-background:new 0 0 22 26;" xml:space="preserve">
<style type="text/css">
	.st0{fill:#FFFFFF;}
</style>
<g>
	<path class="st0" d="M11,24.8c-6.1,0-11-4.9-11-11c0-6.1,4.9-11,11-11c6.1,0,11,4.9,11,11C22,19.9,17.1,24.8,11,24.8z M11,3.3
		C5.2,3.3,0.5,8,0.5,13.8S5.2,24.3,11,24.3s10.5-4.7,10.5-10.5S16.8,3.3,11,3.3z"/>
</g>
<g>
	<path class="st0" d="M13.5,18H8.5C7.6,18,7,17.3,7,16.5v-5.1c0-0.8,0.7-1.5,1.5-1.5h5.1c0.8,0,1.5,0.7,1.5,1.5v5.1
		C15,17.3,14.4,18,13.5,18z M8.5,10.4c-0.6,0-1,0.5-1,1v5.1c0,0.6,0.5,1,1,1h5.1c0.6,0,1-0.5,1-1v-5.1c0-0.6-0.5-1-1-1H8.5z"/>
</g>
<g>
	<path class="st0" d="M11,16.1c-0.6,0-1.1-0.2-1.6-0.6c-0.4-0.4-0.6-1-0.6-1.6c0-0.6,0.2-1.1,0.6-1.6s1-0.6,1.6-0.6
		c0.6,0,1.1,0.2,1.6,0.6c0.4,0.4,0.6,1,0.6,1.6c0,0.6-0.2,1.1-0.6,1.6C12.1,15.9,11.6,16.1,11,16.1z M11,12.3
		c-0.5,0-0.9,0.2-1.2,0.5c-0.3,0.3-0.5,0.7-0.5,1.2c0,0.5,0.2,0.9,0.5,1.2c0.3,0.3,0.7,0.5,1.2,0.5c0.5,0,0.9-0.2,1.2-0.5
		c0.3-0.3,0.5-0.7,0.5-1.2c0-0.5-0.2-0.9-0.5-1.2C11.9,12.4,11.5,12.3,11,12.3z"/>
</g>
<g>
	<path class="st0" d="M13.3,12.2c-0.3,0-0.6-0.3-0.6-0.6c0-0.3,0.3-0.6,0.6-0.6c0.3,0,0.6,0.3,0.6,0.6C14,11.9,13.7,12.2,13.3,12.2z
		 M13.3,11.4c-0.1,0-0.1,0.1-0.1,0.1c0,0.1,0.1,0.1,0.1,0.1c0.1,0,0.1-0.1,0.1-0.1C13.4,11.5,13.4,11.4,13.3,11.4z"/>
</g>
</svg>
